<svg width="98" height="111" viewBox="0 0 98 111" fill="none" xmlns="http://www.w3.org/2000/svg">
<path d="M49 0C23.275 0 0 18.1801 0 46.2971C0 64.2513 15.0063 85.3672 44.9575 109.645C47.1625 111.452 50.8988 111.452 53.1038 109.645C82.9938 85.3672 98 64.2513 98 46.2971C98 18.1801 74.725 0 49 0ZM22.6012 59.2263C29.89 53.9756 39.0163 50.8138 49 50.8138C58.9837 50.8138 68.11 53.9756 75.3988 59.2263C70.1312 67.6389 60.3312 73.3978 49 73.3978C37.6688 73.3978 27.8687 67.6389 22.6012 59.2263ZM49 22.5839C55.7375 22.5839 61.25 27.6653 61.25 33.8759C61.25 40.0865 55.7375 45.1679 49 45.1679C42.2625 45.1679 36.75 40.0865 36.75 33.8759C36.75 27.6653 42.2625 22.5839 49 22.5839Z" fill="url(#paint0_linear_206_3)"/>
<defs>
<linearGradient id="paint0_linear_206_3" x1="49" y1="0" x2="49" y2="111" gradientUnits="userSpaceOnUse">
<stop offset="0.520833" stop-color="#FE8900"/>
<stop offset="1" stop-color="#EBFF00"/>
</linearGradient>
</defs>
</svg>
